<svg xmlns="http://www.w3.org/2000/svg" viewBox="0 0 700 460" style="width:100%;height:auto;display:block" preserveAspectRatio="xMidYMid meet"><style>.ln{fill:none;stroke:#AEB9C7;stroke-width:2;stroke-linejoin:round;stroke-linecap:round}.pf{fill:#111823;stroke:#AEB9C7;stroke-width:2;stroke-linejoin:round}.gl{fill:#0c1418;stroke:#37CFC9;stroke-width:2}.ac{fill:none;stroke:#37CFC9;stroke-width:2}.acf{fill:#37CFC9}.am{fill:none;stroke:#F4B740;stroke-width:2}.amf{fill:#F4B740}.rd{fill:none;stroke:#EA5B60;stroke-width:2}.rdf{fill:#EA5B60}.gnf{fill:#4FD48C}.dk{fill:#222b36;stroke:#AEB9C7;stroke-width:2}.lead{stroke:#6b7686;stroke-width:1;fill:none}.dot{fill:#37CFC9}.lbl{fill:#D2DBE6;font-family:monospace;font-size:12.5px}.sub{fill:#9aa6b6;font-family:monospace;font-size:10px}.tt{fill:#8793a3;font-family:monospace;font-size:9px}</style><rect class="pf" x="150" y="30" width="400" height="405" rx="16"/><rect class="gl" x="180" y="55" width="250" height="140" rx="8"/><text class="sub" x="305" y="120" text-anchor="middle">POSIMAT</text><rect x="185" y="168" width="55" height="20" rx="3" fill="none" stroke="#37CFC9" stroke-width="1"/><text class="tt" x="212" y="182" text-anchor="middle">INFO</text><rect x="246" y="168" width="55" height="20" rx="3" fill="none" stroke="#37CFC9" stroke-width="1"/><text class="tt" x="273" y="182" text-anchor="middle">ALRM</text><rect x="307" y="168" width="55" height="20" rx="3" fill="none" stroke="#37CFC9" stroke-width="1"/><text class="tt" x="334" y="182" text-anchor="middle">PROD</text><rect x="368" y="168" width="55" height="20" rx="3" fill="none" stroke="#37CFC9" stroke-width="1"/><text class="tt" x="395" y="182" text-anchor="middle">ADJ</text><circle class="ln" cx="490" cy="92" r="27"/><line class="ac" x1="490" y1="92" x2="474" y2="76" stroke-width="3"/><text class="tt" x="460" y="72" text-anchor="middle">A</text><text class="tt" x="520" y="118" text-anchor="middle">M</text><circle class="ln" cx="490" cy="172" r="27"/><line class="ac" x1="490" y1="172" x2="474" y2="156" stroke-width="3"/><text class="tt" x="460" y="152" text-anchor="middle">A</text><text class="tt" x="520" y="198" text-anchor="middle">M</text><circle cx="200" cy="238" r="12" fill="#4FD48C"/><circle cx="200" cy="238" r="12" fill="none" stroke="#0E1218" stroke-width="1.5"/><text class="tt" x="200" y="262" text-anchor="middle">START</text><circle cx="250" cy="238" r="12" fill="#EA5B60"/><circle cx="250" cy="238" r="12" fill="none" stroke="#0E1218" stroke-width="1.5"/><text class="tt" x="250" y="262" text-anchor="middle">ALARM</text><circle cx="300" cy="238" r="12" fill="#EA5B60"/><circle cx="300" cy="238" r="12" fill="none" stroke="#0E1218" stroke-width="1.5"/><text class="tt" x="300" y="262" text-anchor="middle">EMERG</text><circle class="gnf" cx="195" cy="312" r="17"/><circle cx="195" cy="312" r="17" fill="none" stroke="#0E1218" stroke-width="1.5"/><text class="tt" x="195" y="348" text-anchor="middle">START</text><circle class="dk" cx="250" cy="312" r="17"/><text class="tt" x="250" y="348" text-anchor="middle">STOP</text><circle class="amf" cx="305" cy="312" r="17"/><circle cx="305" cy="312" r="17" fill="none" stroke="#0E1218" stroke-width="1.5"/><text class="tt" x="305" y="348" text-anchor="middle">REV</text><circle class="dk" cx="360" cy="312" r="17"/><text class="tt" x="360" y="348" text-anchor="middle">RESET</text><circle class="rd" cx="475" cy="315" r="34"/><circle class="rdf" cx="475" cy="315" r="23"/><circle cx="475" cy="315" r="23" fill="none" stroke="#0E1218" stroke-width="1.5"/><line class="lead" x1="20" y1="56" x2="182" y2="90"/><circle class="dot" cx="182" cy="90" r="2.6"/><text class="lbl" x="20" y="60" text-anchor="start">HMI touchscreen</text><line class="lead" x1="680" y1="76" x2="517" y2="92"/><circle class="dot" cx="517" cy="92" r="2.6"/><text class="lbl" x="680" y="80" text-anchor="end">Auto / Manual selector</text><line class="lead" x1="680" y1="168" x2="517" y2="172"/><circle class="dot" cx="517" cy="172" r="2.6"/><text class="lbl" x="680" y="172" text-anchor="end">Door-blockage selector</text><line class="lead" x1="20" y1="234" x2="188" y2="238"/><circle class="dot" cx="188" cy="238" r="2.6"/><text class="lbl" x="20" y="238" text-anchor="start">Pilot lights</text><line class="lead" x1="20" y1="396" x2="200" y2="329"/><circle class="dot" cx="200" cy="329" r="2.6"/><text class="lbl" x="20" y="400" text-anchor="start">Start / Stop /</text><text class="lbl" x="20" y="416" text-anchor="start">Reverse / Reset</text><line class="lead" x1="680" y1="396" x2="475" y2="349"/><circle class="dot" cx="475" cy="349" r="2.6"/><text class="lbl" x="680" y="400" text-anchor="end">Emergency stop</text></svg>